<svg width="25" height="25" viewBox="0 0 25 25" fill="none" xmlns="http://www.w3.org/2000/svg">
<g clip-path="url(#clip0)">
<path d="M24.958 12.9435C24.958 6.27553 19.5854 0.870117 12.958 0.870117C6.33059 0.870117 0.958008 6.27553 0.958008 12.9435C0.958008 18.9696 5.34623 23.9644 11.083 24.8701V16.4334H8.03613V12.9435H11.083V10.2835C11.083 7.25767 12.8745 5.58626 15.6156 5.58626C16.9285 5.58626 18.3018 5.82207 18.3018 5.82207V8.79324H16.7886C15.2979 8.79324 14.833 9.72391 14.833 10.6787V12.9435H18.1611L17.6291 16.4334H14.833V24.8701C20.5698 23.9644 24.958 18.9696 24.958 12.9435Z" fill="#B3B3BA"/>
</g>
<defs>
<clipPath id="clip0">
<rect width="24" height="24" fill="white" transform="translate(0.958008 0.870117)"/>
</clipPath>
</defs>
</svg>
